<?xml version="1.0" encoding="utf-8"?>
<!-- Generator: Adobe Illustrator 27.1.1, SVG Export Plug-In . SVG Version: 6.00 Build 0)  -->
<svg version="1.1" id="Layer_2" xmlns="http://www.w3.org/2000/svg" xmlns:xlink="http://www.w3.org/1999/xlink" x="0px" y="0px"
	 viewBox="0 0 500 500" style="enable-background:new 0 0 500 500;" xml:space="preserve">
<style type="text/css">
	.st0{fill:#F2F2F2;}
	.st1{fill:#094D76;}
	.st2{fill:none;stroke:#FFFFFF;stroke-width:1.2805;stroke-miterlimit:10;}
	.st3{fill:#FFFFFF;}
	.st4{fill:#4EB748;}
	.st5{fill:none;stroke:#FFFFFF;stroke-width:5.122;stroke-miterlimit:10;}
	.st6{fill:#F8BA19;}
	.st7{fill:#FFFFFF;stroke:#000000;stroke-width:1.2805;stroke-miterlimit:10;}
	.st8{fill:#F8BA19;stroke:#000000;stroke-width:1.2805;stroke-miterlimit:10;}
	.st9{fill:none;stroke:#094D76;stroke-width:2.561;stroke-linecap:round;stroke-linejoin:round;stroke-miterlimit:10;}
	.st10{opacity:0.5;}
	.st11{fill:none;stroke:#FFFFFF;stroke-width:1.2805;stroke-miterlimit:10;stroke-dasharray:8.9859,8.9859;}
	.st12{opacity:0.85;fill:none;stroke:#FFFFFF;stroke-width:1.2805;stroke-miterlimit:10;}
	.st13{opacity:0.85;}
	.st14{opacity:0.7;}
	.st15{fill:none;stroke:#FFFFFF;stroke-width:1.5032;stroke-miterlimit:10;}
	.st16{opacity:0.9;fill:none;stroke:#FFFFFF;stroke-width:0.6403;stroke-miterlimit:10;}
	.st17{fill:#5850A1;}
	.st18{opacity:5.000000e-02;}
</style>
<rect x="173.1" y="109.3" class="st0" width="162.5" height="278"/>
<path d="M341.3,337.6c0.1-52.4,0.1-104.8,0.1-157.2c0-1-0.5-2.1-0.3-3c0.7-3.3,0.1-6.5,0.1-9.8c0.2-23.5,0.1-47,0.1-70.4
	c0-2.5-0.2-5.1-0.9-7.5c-3.3-11.7-13.1-19-24.6-19c-40.9-0.1-81.8-0.1-122.7,0c-5.2,0-10,1.5-14.3,4.5c-7.5,5.2-11.2,12.6-11.2,21.7
	c0,32.5,0,64.9,0,97.4h0V278h0.1c0,15.7-0.2,31.4,0.1,47.1c0.1,3.9-0.1,7.9-0.1,11.8c-0.2,20.5-0.1,41-0.1,61.4
	c0,5.9,2,11.1,5.5,15.7c5.1,6.8,12.3,10,20.7,10.1c24.3,0.1,48.6,0,72.9,0c16.3,0,32.6,0.1,49,0c7,0,13.1-2.5,18.2-7.4
	c5.3-5.3,7.7-11.8,7.7-19.2c0-14.1,0-28.2,0-42.3c0-2.6-0.3-5.1-0.2-7.7C341.3,344.2,341.3,340.9,341.3,337.6z M240.2,89.9
	c0.5-0.4,1.1-0.4,1.6-0.4c8.2,0,16.5,0,24.7,0c1.8,0,3,1.1,3,2.8c0,1.7-1.1,2.9-3,2.9c-4.1,0-8.2,0-12.3,0c-4.1,0-8.1,0-12.2,0
	c-1.5,0-2.5-0.6-2.9-2.1C238.7,91.8,239.2,90.7,240.2,89.9z M254.3,409.3c-5.8,0.2-11-4.8-11-11c0-6.1,5-11,11.1-11
	c6.1,0,11.1,5.1,11.1,11.2C265.4,404.4,260.4,409.6,254.3,409.3z M330.9,174.4c0,58.6,0,117.2,0,175.9c0,8.1,0,16.3,0,24.4
	c0,2.1,0,2.1-2.1,2.1c-18.7,0-37.5,0-56.2,0c-18.3,0-36.5,0-54.8,0c-2.1,0-23.1,0.3-29.5,0c-2.8-0.1-5.5,0-8.3,0c-2,0-2,0-2-2
	c0-16,0.1-32,0-47.9c0-3.1,0.1-6.3-0.2-9.4c-0.1-1.1,0.2-2.3,0.2-3.5c0-12,0-24,0-36.1h0v-16.2c0-48.4,0-96.9,0-145.3
	c0-3.1-0.3-2.6,2.7-2.6c4.2,0,8.5,0,12.7,0v0h20.5c0.2,0,0.5,0,0.7,0h4.1c0.2,0.1,0.5,0.1,0.7,0h4.3c0.3,0.1,0.7,0,1,0h22.6v0
	c16.8,0,33.6,0,50.3,0c10.5,0,20.9,0,31.4,0c1.4,0,1.8,0.3,1.8,1.8C330.9,135.2,330.9,154.8,330.9,174.4z"/>
<path class="st1" d="M403.6,166.4h-89.3c-1.1,0-2.1-0.5-2.8-1.3l-9.3-11c-1.4-1.7-4-1.7-5.5,0l-9.6,11.1c-0.7,0.8-1.7,1.2-2.7,1.2
	h-22.7c-6.2,0-11.2,5-11.2,11.2v89.8c0,6.2,5,11.2,11.2,11.2h141.8c6.2,0,11.2-5,11.2-11.2v-89.8
	C414.9,171.5,409.8,166.4,403.6,166.4z"/>
<path class="st2" d="M391.7,261.9h-26.9c-6.5,0-11.7-5.2-11.7-11.7v-6.6c0-6.5,5.2-11.7,11.7-11.7h26.9c6.5,0,11.7,5.2,11.7,11.7
	v6.6C403.4,256.6,398.1,261.9,391.7,261.9z"/>
<circle class="st3" cx="305.8" cy="269" r="34.7"/>
<path class="st4" d="M391.2,260.4h-5.9c-5.8,0-10.5-4.7-10.5-10.5v-5.9c0-5.8,4.7-10.5,10.5-10.5h5.9c5.8,0,10.5,4.7,10.5,10.5v5.9
	C401.7,255.7,397,260.4,391.2,260.4z"/>
<rect x="263.1" y="196.9" class="st3" width="80.1" height="6.9"/>
<polyline class="st5" points="366.2,198.6 374.8,207.3 394.7,187 "/>
<g>
	<path class="st6" d="M312.5,255.1c-0.7,0-1.4,0-2,0c-0.6,0-1-0.4-0.9-1c0-0.4,0.3-0.7,0.7-0.8c0.1,0,0.2,0,0.3,0c1.3,0,2.7,0,4,0
		c0.5,0,0.9,0.3,1,0.7c0.1,0.6-0.3,1.1-0.9,1.1C313.9,255.1,313.2,255.1,312.5,255.1z"/>
	<path class="st6" d="M295,255.1c-0.7,0-1.4,0-2.1,0c-0.7,0-1.2-0.7-0.8-1.4c0.2-0.3,0.5-0.4,0.9-0.4c1.2,0,2.5,0,3.7,0
		c0.1,0,0.3,0,0.4,0c0.5,0.1,0.9,0.4,0.8,0.9c0,0.5-0.4,0.9-0.9,0.9C296.4,255.1,295.7,255.1,295,255.1z"/>
	<path class="st6" d="M302.9,245.4c0-0.7,0-1.4,0-2.1c0-0.4,0.3-0.7,0.7-0.8c0.4-0.1,0.8,0.1,1,0.4c0.1,0.2,0.1,0.3,0.1,0.5
		c0,1.4,0,2.7,0,4.1c0,0.5-0.3,0.8-0.7,0.9c-0.4,0.1-0.8-0.1-1-0.5c-0.1-0.1-0.1-0.3-0.1-0.4C302.9,246.8,302.9,246.1,302.9,245.4
		C302.9,245.4,302.9,245.4,302.9,245.4z"/>
	<path class="st6" d="M299.1,250.4c-0.3,0-0.6-0.1-0.7-0.3c-1-1-1.9-1.9-2.9-2.9c-0.4-0.4-0.4-0.9,0-1.3c0.4-0.4,0.9-0.4,1.3,0
		c0.4,0.4,0.8,0.8,1.2,1.2c0.6,0.6,1.1,1.1,1.7,1.7c0.3,0.3,0.3,0.6,0.2,1C299.7,250.2,299.5,250.4,299.1,250.4z"/>
	<path class="st6" d="M308.4,250.4c-0.4,0-0.7-0.2-0.8-0.5c-0.1-0.3-0.1-0.7,0.2-1c0.4-0.4,0.9-0.9,1.3-1.3c0.6-0.6,1.1-1.1,1.7-1.7
		c0.3-0.3,0.6-0.4,1-0.2c0.4,0.1,0.6,0.4,0.6,0.8c0,0.3-0.1,0.5-0.3,0.7c-1,1-1.9,1.9-2.9,2.9c-0.1,0.1-0.2,0.1-0.3,0.2
		C308.7,250.3,308.6,250.4,308.4,250.4z"/>
	<path class="st6" d="M300.6,275.2c0-0.1,0-0.1,0-0.2c0-4.2,0-8.3,0-12.5c0-1.9,0-3.8,0-5.6c0-1,0-1.9,0-2.9c0-1.7,1.3-3.1,2.9-3.3
		c1.1-0.1,2.1,0.3,2.8,1.2c0.5,0.6,0.8,1.3,0.8,2.1c0,4.4,0,8.8,0,13.1c0,0.1,0,0.1,0,0.2c0.1,0,0.1-0.1,0.2-0.1
		c1.4-1.1,3.3-0.7,4.3,0.3c0.5,0.5,0.7,1.1,0.8,1.8c0,0.1,0.1,0.1,0.2,0.1c1.8-1.4,4.6-0.7,5.2,2.1c0,0.1,0,0.2,0,0.3
		c0.1-0.1,0.1-0.1,0.2-0.2c1.8-1.5,4.5-0.5,5.1,1.6c0.1,0.3,0.1,0.7,0.1,1.1c0,2.9,0,5.8,0,8.6c0,2.7-0.9,5.2-2.5,7.3
		c-1.3,1.7-3.1,2.7-5.2,3c-0.4,0.1-0.9,0.1-1.4,0.1c-2.2,0-4.5,0-6.7,0c-2.3,0-4.4-0.8-6.1-2.4c-1-0.9-1.6-1.9-2.2-3.1
		c-1.1-2.3-2.2-4.6-3.6-6.8c-0.7-1.2-1.5-2.2-2.5-3.2c-0.3-0.3-0.7-0.7-1-1c-1.4-1.8-0.8-4.5,1.2-5.5c1.3-0.6,2.9-0.4,4,0.5
		c0.6,0.5,1.1,1.1,1.7,1.7C299.6,274.1,300.1,274.6,300.6,275.2C300.6,275.1,300.6,275.2,300.6,275.2z"/>
</g>
<rect x="97.6" y="305.6" class="st7" width="193.1" height="33.8"/>
<rect x="255.5" y="305.6" class="st8" width="35.3" height="33.8"/>
<line class="st9" x1="109.1" y1="321.7" x2="189.2" y2="321.7"/>
<g class="st10">
	<circle class="st11" cx="255.5" cy="251.2" r="203.1"/>
</g>
<polyline class="st12" points="32.9,317.1 32.9,337.9 5,337.9 5,310.1 27,310.1 "/>
<g class="st13">
	<line class="st2" x1="16.4" y1="325.8" x2="38.9" y2="304.1"/>
	<polyline class="st2" points="27.7,303.7 39.5,303.7 39.5,315 	"/>
</g>
<g class="st14">
	<line class="st15" x1="115.7" y1="185" x2="142.1" y2="159.5"/>
	<polyline class="st15" points="128.9,159 142.8,159 142.8,172.3 	"/>
</g>
<g class="st10">
	<line class="st15" x1="392.6" y1="151" x2="368.8" y2="123.1"/>
	<polyline class="st15" points="367.4,136.2 368.3,122.3 381.5,123.1 	"/>
</g>
<path d="M271.1,314.7c5.3,0,8.9,5.7,6.5,10.4c-0.4,0.8-0.3,1.2,0.3,1.7c1.4,1.3,2.7,2.6,4,3.9c0.8,0.8,0.7,1.8-0.1,2.2
	c-0.7,0.4-1.2,0.2-1.7-0.3c-1.4-1.4-2.8-2.7-4.1-4.1c-0.5-0.5-0.8-0.5-1.4-0.2c-4.8,2.5-10.5-0.9-10.6-6.3
	C263.8,318.1,267.1,314.7,271.1,314.7z M271.1,316.6c-3,0-5.3,2.3-5.3,5.4c0,3,2.3,5.3,5.4,5.3c3,0,5.3-2.3,5.3-5.4
	C276.4,318.8,274.1,316.6,271.1,316.6z"/>
<path class="st16" d="M382.1,330.4c8.5,0.3,16,3.7,22,10.4c1.1,1.2,1.1,2.5,0.1,3.4c-1,1-2.3,0.8-3.4-0.4c-4-4.6-9-7.5-15-8.4
	c-8.7-1.4-16.2,1.2-22.4,7.4c-0.4,0.4-0.7,0.8-1.1,1.2c-1.1,1.1-2.3,1.2-3.3,0.3c-0.9-0.8-1-2.1-0.1-3.2c2-2.4,4.3-4.4,7-6
	C370.7,332,376,330.5,382.1,330.4z"/>
<path class="st16" d="M381.7,338.9c6.3,0.2,11.7,2.6,15.9,7.4c1.1,1.2,1.1,2.6,0,3.5c-1,0.8-2.3,0.6-3.4-0.5
	c-6.8-7.7-18.4-7.7-25.2-0.1c-1.2,1.3-2.7,1.5-3.7,0.4c-0.8-0.9-0.8-2.1,0.1-3.1C369.7,341.5,375.1,339.1,381.7,338.9z"/>
<path class="st16" d="M391.9,353.5c-0.1,0.7-0.4,1.4-1.1,1.8c-0.8,0.5-1.5,0.5-2.3,0c-0.3-0.2-0.6-0.5-0.9-0.8
	c-3.5-3.5-8.7-3.4-12.2,0.1c-0.1,0.1-0.3,0.3-0.4,0.4c-0.9,0.9-2.1,0.9-3,0.1c-0.9-0.8-1.1-2-0.3-3c1.4-1.8,3.2-3,5.3-3.8
	c4.8-1.9,10.4-0.6,13.9,3.1C391.4,352,391.9,352.6,391.9,353.5z"/>
<path class="st16" d="M385.9,360.2c0,2.4-2,4.5-4.4,4.5c-2.3,0-4.3-2-4.4-4.3c-0.1-2.4,2-4.5,4.4-4.5
	C383.9,355.9,385.9,357.9,385.9,360.2z"/>
<circle class="st17" cx="454.8" cy="296.8" r="35.9"/>
<circle class="st17" cx="54.9" cy="221.1" r="35.9"/>
<rect x="171.6" y="103.3" class="st18" width="86" height="280.8"/>
<g id="XMLID_2260_">
	<g id="XMLID_1273_">
		<polygon id="XMLID_1274_" class="st3" points="454.5,274.4 454.3,275 454.7,275 		"/>
		<path id="XMLID_1278_" class="st3" d="M475.5,283.3l-3.3,0.7l-3.5-5.2c-1.3-2-3.5-3.1-5.8-3.1h-2l-1.1-2c-0.2-0.3-0.5-0.5-0.8-0.5
			H455h-3.9c-0.3,0-0.6,0.2-0.8,0.5l-1.1,2h-2c-2.3,0-4.5,1.2-5.8,3.1l-3.5,5.2l-3.3-0.7c-0.7-0.2-1.4,0.4-1.4,1.1v1.2
			c0,0.7,0.5,1.2,1.2,1.2h1.7c-1.1,1.8-1.7,3.8-1.7,5.9v6.4v4.7v2.9c0,0.9,0.7,1.7,1.7,1.7h3.3c0.9,0,1.7-0.7,1.7-1.7v-2.9H455h14.2
			v2.9c0,0.9,0.7,1.7,1.7,1.7h3.3c0.9,0,1.7-0.7,1.7-1.7v-2.9v-4.7v-6.4c0-2.1-0.6-4.2-1.7-5.9h1.7c0.7,0,1.2-0.5,1.2-1.2v-1.2
			C476.9,283.7,476.2,283.1,475.5,283.3z M457.4,274h0.5v1.6h-0.5V274z M454.8,274l0.6,1.6l0.6-0.8l-0.5-0.8h0.6l0.3,0.5l0.3-0.5
			h0.5l-0.5,0.8l0.6,0.8h-0.6l-0.3-0.5l-0.3,0.5h-0.6h0h-0.5l-0.1-0.3h-0.6l-0.1,0.3h-0.5l0.6-1.6H454.8z M452.2,274h1.5v0.4h-0.5
			v1.2h-0.5v-1.2h-0.5V274z M438.2,287.6l5.1-7.6c0.9-1.3,2.4-2.1,3.9-2.1h7.8h7.8c1.6,0,3.1,0.8,3.9,2.1l5.1,7.6
			c0.5,0.7,0,1.6-0.9,1.6h-16h-16C438.2,289.2,437.7,288.3,438.2,287.6z M443.6,294.9l-0.3,0.6c-0.2,0.4-0.6,0.6-1,0.6h-3
			c-0.7,0-1.2-0.5-1.2-1.2v-1.2c0-0.7,0.7-1.3,1.4-1.1l3.4,0.7C443.5,293.5,443.9,294.3,443.6,294.9z M463.2,302.1H455h-8.2
			c-0.3,0-0.5-0.2-0.5-0.5s0.2-0.5,0.5-0.5h8.2h8.2c0.3,0,0.5,0.2,0.5,0.5S463.5,302.1,463.2,302.1z M463.2,299.9H455h-8.2
			c-0.3,0-0.5-0.2-0.5-0.5c0-0.3,0.2-0.5,0.5-0.5h8.2h8.2c0.3,0,0.5,0.2,0.5,0.5C463.7,299.7,463.5,299.9,463.2,299.9z M472.1,295
			c0,0.7-0.5,1.2-1.2,1.2h-3c-0.4,0-0.8-0.2-1-0.6l-0.3-0.6c-0.3-0.6,0.1-1.4,0.7-1.5l3.4-0.7c0.7-0.2,1.4,0.4,1.4,1.1V295z"/>
	</g>
	<g id="XMLID_2258_">
		<path id="XMLID_2263_" class="st3" d="M445.3,309h-20.5c-0.3,0-0.6-0.3-0.6-0.6c0-0.3,0.3-0.6,0.6-0.6h20.5c0.3,0,0.6,0.3,0.6,0.6
			C445.9,308.8,445.6,309,445.3,309z"/>
	</g>
	<g id="XMLID_1596_">
		<path id="XMLID_2262_" class="st3" d="M454,309h-4.8c-0.3,0-0.6-0.3-0.6-0.6c0-0.3,0.3-0.6,0.6-0.6h4.8c0.3,0,0.6,0.3,0.6,0.6
			C454.6,308.8,454.3,309,454,309z"/>
	</g>
	<g id="XMLID_2259_">
		<path id="XMLID_2261_" class="st3" d="M484.9,309h-25.7c-0.3,0-0.6-0.3-0.6-0.6c0-0.3,0.3-0.6,0.6-0.6h25.7c0.3,0,0.6,0.3,0.6,0.6
			C485.5,308.8,485.3,309,484.9,309z"/>
	</g>
</g>
<g>
	<path class="st3" d="M53.3,221.9c0.1,0.2,0.1,0.4,0.1,0.6c-0.1,0.3-0.3,0.4-0.6,0.4c-0.8,0-1.6,0-2.4,0c-2,0-4.1,0-6.1,0
		c-0.3,0-0.6-0.1-0.6-0.4c-0.1-0.4,0.1-0.9,0.6-0.9c0.1,0,0.1,0,0.2,0c2.4,0,4.8,0,7.3,0c0.1,0,0.2,0,0.4,0
		c-0.3-0.1-0.6-0.1-0.9-0.3c-0.5-0.2-0.7-0.6-0.8-1.2c-0.1-0.4,0.1-0.8,0.1-1.1c0.1-0.6,0.2-1.3,0.3-1.9c0.2-0.9,0.4-1.9,0.5-2.8
		c0.2-0.9,0.3-1.9,0.5-2.8c0.1-0.4,0.1-0.7,0.3-1.1c0.4-0.8,1.2-1.2,2.2-1.1c0.4,0.1,0.8,0.1,1.2,0.2c1,0.2,1.7,1.1,1.6,2.2
		c0,0.3-0.1,0.6-0.1,0.8c0,0.1,0,0.2,0.1,0.3c0.5,0.5,0.9,0.9,1.4,1.4c0.1,0.1,0.2,0.1,0.3,0.1c1-0.2,2-0.4,3-0.5
		c0.7-0.1,1.4-0.3,2.1-0.4c0.3-0.1,0.7,0,0.9,0.2c0.1,0.1,0.3,0.2,0.5,0.2c0.5,0,0.4,0.1,0.4-0.4c0-0.1,0-0.2,0-0.3
		c0-0.1,0.1-0.2,0.2-0.2c0,0,0,0,0.1,0c1.1,0,2.2,0,3.3,0c0.3,0,0.3,0,0.3,0.3c0,1,0,2.1,0,3.1c0,0.2-0.1,0.3-0.2,0.3
		c-0.3,0.1-0.6,0.2-0.9,0.2c-0.1,0-0.2,0.1-0.1,0.2c0.5,1.2,1,2.5,1.5,3.7c0.5,1.2,1,2.4,1.4,3.7c0.3,0.8,0.6,1.6,0.9,2.4
		c0,0.1,0.1,0.2,0.2,0.1c0.8,0,1.6,0,2.3,0.1c0.9,0.1,1.7,0.3,2.5,0.8c0.8,0.5,1.2,1.3,1.5,2.1c0.3,0.9,0.5,1.8,0.7,2.8
		c0,0.1,0,0.2-0.2,0.2c-0.1,0-0.2,0-0.3,0c-8.3,0-16.6,0-24.9,0c-0.6,0-1.2-0.1-1.8-0.3c-0.6-0.3-1.1-0.7-1.6-1.2
		c-0.3-0.4-0.6-0.8-0.9-1.2c-0.5-0.6-1.1-0.9-1.9-0.9c-2.8,0-5.6,0-8.5,0c-0.3,0-0.3,0-0.3-0.3c0-0.6,0-1.2,0-1.8
		c0-0.7,0.2-1.3,0.5-1.8c0.1-0.1,0.1-0.2,0-0.4c-0.6-1.1-1.3-2.2-1.9-3.4c-0.2-0.4-0.5-0.9-0.7-1.3c-0.1-0.1-0.1-0.2,0.1-0.2
		c0.2,0,0.4,0,0.6,0c0.1,0,0.2,0.1,0.3,0.2c0.7,1,1.4,2,2.1,3c0.1,0.2,0.3,0.4,0.4,0.6c0.1,0.1,0.1,0.1,0.2,0
		c0.2-0.2,0.2-0.2,0.1-0.5c-0.6-1.1-1.2-2.1-1.8-3.2c-0.1-0.2-0.1-0.2,0.1-0.2c0.5-0.1,0.8,0.1,1.1,0.5c0.5,0.8,1.1,1.6,1.6,2.4
		c0.1,0.1,0.2,0.2,0.3,0.1c0.4-0.1,0.7-0.2,1.1-0.2c0.1,0,0.2,0,0.2,0.1c0.3,0.5,0.8,0.5,1.3,0.5c2.3,0,4.6,0,6.9,0
		c0.2,0,0.3,0,0.5,0c0.2,0,0.2,0.1,0.3,0.2c0.5,1,0.9,2,1.4,3c0.4,0.9,0.8,1.9,1.3,2.8c0.2,0.4,0.4,0.7,0.8,0.8
		c0.2,0.1,0.4,0.1,0.6,0.1c3.7,0,7.4,0,11.1,0c0.2,0,0.2,0,0.2-0.2c-0.1-0.6-0.1-1.1-0.2-1.7c-0.1-0.7-0.2-1.3-0.3-2
		c-0.2-1.1-0.3-2.3-0.5-3.4c-0.1-0.9-0.3-1.8-0.4-2.7c-0.2-1.4-0.4-2.7-0.6-4.1c-0.1-0.3-0.1-0.7-0.1-1c0-0.1,0-0.2-0.2-0.2
		c-0.1,0-0.2,0-0.3,0c-0.1,0-0.2,0-0.2,0.1c-0.2,0.3-0.4,0.4-0.7,0.4c-1.1,0.2-2.2,0.4-3.3,0.6c-0.8,0.1-1.5,0.3-2.3,0.4
		c-0.5,0.1-1,0-1.3-0.4c-0.2-0.2-0.4-0.4-0.7-0.7c-0.1-0.1-0.1-0.1-0.2,0c-0.1,0.3-0.1,0.6-0.2,1c-0.1,0.8-0.3,1.5-0.4,2.3
		c0,0.2-0.1,0.3-0.1,0.5c0,0.1,0,0.2,0.2,0.2c0.9,0.2,1.9,0.5,2.8,0.7c0.6,0.1,0.9,0.5,1.1,1c0.5,1.4,1.1,2.8,1.6,4.1
		c0.3,0.9,0.7,1.7,1,2.6c0.2,0.7-0.2,1.6-1,1.8c-0.8,0.3-1.6-0.2-1.9-0.9c-0.3-0.9-0.7-1.8-1-2.7c-0.4-1-0.8-2-1.2-3
		c-0.1-0.2-0.2-0.2-0.3-0.3c-0.7-0.2-1.4-0.4-2.1-0.5C54.3,222.1,53.8,222,53.3,221.9z"/>
	<path class="st3" d="M37.6,219.6c-1.8,0-3.7,0-5.5,0c-0.7,0-1.2-0.3-1.4-1c0-0.1-0.1-0.2-0.1-0.3c0-2,0-3.9,0-5.9
		c0-0.5,0.5-1.1,1-1.2c0.2,0,0.4-0.1,0.6-0.1c3.6,0,7.2,0,10.8,0c0.4,0,0.7,0.1,1,0.3c0.4,0.3,0.6,0.7,0.6,1.1c0,1.9,0,3.7,0,5.6
		c0,0.8-0.6,1.4-1.4,1.4C41.3,219.6,39.4,219.6,37.6,219.6z"/>
	<path class="st3" d="M41.4,229.7c0.4,0,0.8,0,1.1,0c0.1,0,0.1,0,0.2,0c0,0.1,0,0.1-0.1,0.1c-0.7,0.6-1.1,1.4-1.1,2.4
		c0,1.5,1,2.8,2.6,3.1c1.5,0.2,2.8-0.5,3.3-1.8c0.6-1.3,0.3-2.7-0.8-3.7c0,0-0.1-0.1-0.1-0.2c0-0.1,0.1-0.1,0.2-0.1c0.3,0,0.6,0,1,0
		c0.6,0,1.1,0.4,1.5,0.8c0.2,0.3,0.5,0.5,0.6,0.9c0.1,0.4,0.1,0.9,0,1.3c-0.1,1-0.4,1.9-1,2.7c-0.6,0.8-1.4,1.4-2.3,1.7
		c-0.6,0.2-1.3,0.4-1.9,0.3c-1.4-0.1-2.6-0.6-3.6-1.6c-0.6-0.7-1.1-1.4-1.3-2.3c-0.3-1-0.2-2.1,0.1-3.1c0.1-0.2,0.2-0.4,0.2-0.6
		c0.1-0.2,0.2-0.2,0.3-0.2C40.7,229.7,41,229.7,41.4,229.7z"/>
	<path class="st3" d="M37.2,206.4c-0.6-0.4-0.7-1-0.2-1.4c0.3-0.4,0.9-0.4,1.2,0c0.4,0.4,0.3,1-0.2,1.4c0.2,0,0.3,0.1,0.5,0.1
		c1.2,0.2,2.3,0.8,3.1,1.7c0.6,0.7,1,1.4,1.2,2.3c0,0.2,0,0.2-0.2,0.2c-0.1,0-0.1,0-0.2,0c-3.2,0-6.4,0-9.6,0c0,0,0,0-0.1,0
		c-0.2,0-0.3-0.1-0.2-0.3c0.1-0.4,0.3-0.8,0.5-1.2c0.7-1.3,1.7-2.1,3.1-2.6c0.4-0.1,0.7-0.2,1.1-0.2
		C37.2,206.4,37.2,206.4,37.2,206.4z"/>
	<path class="st3" d="M61.6,206.9c-0.3,0-0.5,0-0.8,0c-0.2,0-0.2,0-0.2,0.2c0.2,1.2-0.4,2.3-1.5,2.8c-1.1,0.6-2.5,0.3-3.3-0.7
		c-0.4-0.5-0.7-1.1-0.7-1.7c0-1,0.4-2,1.6-2.6c1-0.4,1.9-0.3,2.8,0.3c0.2,0.2,0.4,0.4,0.6,0.7c0.1,0.2,0.2,0.2,0.4,0.2
		c0.6,0,1.2,0,1.9,0c0.3,0,0.5,0.3,0.3,0.5c-0.1,0.1-0.2,0.2-0.3,0.2C62.2,206.9,61.9,206.9,61.6,206.9
		C61.6,206.9,61.6,206.9,61.6,206.9z"/>
	<path class="st3" d="M68.7,233.4c0.3,0,0.5,0,0.8,0c0.2,0,0.3,0.1,0.4,0.2c0.4,0.7,0.9,1.3,1.7,1.6c1.5,0.6,3.1-0.1,3.9-1.5
		c0.1-0.2,0.3-0.3,0.5-0.3c0.5,0,1.1,0,1.6,0c0.2,0,0.2,0,0.2,0.2c-0.2,0.6-0.4,1.2-0.8,1.8c-0.8,1-1.8,1.7-3.1,2
		c-1.6,0.3-3,0-4.3-0.9c-1-0.7-1.6-1.7-1.9-2.8c-0.1-0.2,0-0.3,0.2-0.3C68.2,233.4,68.5,233.4,68.7,233.4z"/>
	<path class="st3" d="M44.6,233.8c-0.8,0-1.6-0.7-1.6-1.6c0-0.9,0.7-1.6,1.6-1.6c0.8,0,1.5,0.7,1.5,1.6
		C46.2,233.1,45.5,233.8,44.6,233.8z"/>
	<path class="st3" d="M72.8,233.8c-0.4,0-0.7-0.1-1-0.3c0,0-0.1-0.1-0.1-0.1c0-0.1,0.1-0.1,0.1-0.1c0.5,0,1.1,0,1.6,0
		c0,0,0.1,0,0.1,0.1c0,0.1,0,0.1-0.1,0.1C73.3,233.7,73,233.8,72.8,233.8z"/>
</g>
</svg>
